<svg xmlns="http://www.w3.org/2000/svg" width="57" height="77" viewBox="0 0 57 77">
  <metadata><?xpacket begin="﻿" id="W5M0MpCehiHzreSzNTczkc9d"?>
<x:xmpmeta xmlns:x="adobe:ns:meta/" x:xmptk="Adobe XMP Core 5.6-c138 79.159824, 2016/09/14-01:09:01        ">
   <rdf:RDF xmlns:rdf="http://www.w3.org/1999/02/22-rdf-syntax-ns#">
      <rdf:Description rdf:about=""/>
   </rdf:RDF>
</x:xmpmeta>
                                                                                                    
                                                                                                    
                                                                                                    
                                                                                                    
                                                                                                    
                                                                                                    
                                                                                                    
                                                                                                    
                                                                                                    
                                                                                                    
                                                                                                    
                                                                                                    
                                                                                                    
                                                                                                    
                                                                                                    
                                                                                                    
                                                                                                    
                                                                                                    
                                                                                                    
                                                                                                    
                           
<?xpacket end="w"?></metadata>
<defs>
    <style>
      .cls-1 {
        fill: #1e2528;
        fill-rule: evenodd;
      }
    </style>
  </defs>
  <path class="cls-1" d="M1371.67,5773.41h-6.61a1.6,1.6,0,0,1-1.12-.47l-4.48-4.53a4.667,4.667,0,0,0-3.35-1.41h-13.22a4.667,4.667,0,0,0-3.35,1.41l-4.48,4.53a1.6,1.6,0,0,1-1.12.47h-6.61a6.383,6.383,0,0,0-6.33,6.42v28.88a6.381,6.381,0,0,0,6.33,6.41h11.25a11.225,11.225,0,0,0,2.7,5.86l-10.6,20.67a1.6,1.6,0,0,0,1.4,2.35,1.591,1.591,0,0,0,1.41-.87l10.28-20.05a10.89,10.89,0,0,0,4.15,1.5v17.81a1.58,1.58,0,1,0,3.16,0v-17.81a10.89,10.89,0,0,0,4.15-1.5l10.28,20.05a1.591,1.591,0,0,0,1.41.87,1.6,1.6,0,0,0,1.4-2.35l-10.6-20.67a11.225,11.225,0,0,0,2.7-5.86h11.25a6.381,6.381,0,0,0,6.33-6.41v-28.88A6.383,6.383,0,0,0,1371.67,5773.41Zm-22.17,48.13a7.965,7.965,0,0,1-7.76-6.42h15.52A7.965,7.965,0,0,1,1349.5,5821.54Zm25.33-12.83a3.188,3.188,0,0,1-3.16,3.2h-44.34a3.188,3.188,0,0,1-3.16-3.2v-28.88a3.19,3.19,0,0,1,3.16-3.21h6.61a4.69,4.69,0,0,0,3.36-1.41l4.48-4.53a1.56,1.56,0,0,1,1.11-.47h13.22a1.6,1.6,0,0,1,1.12.47l4.47,4.53a4.69,4.69,0,0,0,3.36,1.41h6.61a3.19,3.19,0,0,1,3.16,3.21v28.88h0Zm-6.33-28.88a3.21,3.21,0,1,1-3.17,3.21A3.192,3.192,0,0,1,1368.5,5779.83Zm-19,0a12.836,12.836,0,1,0,12.67,12.83A12.772,12.772,0,0,0,1349.5,5779.83Zm0,22.46a9.626,9.626,0,1,1,9.5-9.63A9.575,9.575,0,0,1,1349.5,5802.29Z" transform="translate(-1321 -5767)"/>
</svg>
