<svg xmlns="http://www.w3.org/2000/svg" width="65" height="77" viewBox="0 0 65 77">
  <metadata><?xpacket begin="﻿" id="W5M0MpCehiHzreSzNTczkc9d"?>
<x:xmpmeta xmlns:x="adobe:ns:meta/" x:xmptk="Adobe XMP Core 5.6-c138 79.159824, 2016/09/14-01:09:01        ">
   <rdf:RDF xmlns:rdf="http://www.w3.org/1999/02/22-rdf-syntax-ns#">
      <rdf:Description rdf:about=""/>
   </rdf:RDF>
</x:xmpmeta>
                                                                                                    
                                                                                                    
                                                                                                    
                                                                                                    
                                                                                                    
                                                                                                    
                                                                                                    
                                                                                                    
                                                                                                    
                                                                                                    
                                                                                                    
                                                                                                    
                                                                                                    
                                                                                                    
                                                                                                    
                                                                                                    
                                                                                                    
                                                                                                    
                                                                                                    
                                                                                                    
                           
<?xpacket end="w"?></metadata>
<defs>
    <style>
      .cls-1 {
        fill: #1e2528;
        fill-rule: evenodd;
      }
    </style>
  </defs>
  <path class="cls-1" d="M952.9,5811.44a1.554,1.554,0,0,0-2.157,0,4.127,4.127,0,0,1-5.773,0,1.556,1.556,0,0,0-2.158,0,1.494,1.494,0,0,0,0,2.13,7.205,7.205,0,0,0,10.088,0A1.492,1.492,0,0,0,952.9,5811.44Zm23.288,0a1.554,1.554,0,0,0-2.157,0,4.127,4.127,0,0,1-5.773,0,1.556,1.556,0,0,0-2.158,0,1.494,1.494,0,0,0,0,2.13,7.205,7.205,0,0,0,10.088,0A1.492,1.492,0,0,0,976.187,5811.44Zm15.8-1.34a6.551,6.551,0,0,0-5.931-6.46v-2.36a26.027,26.027,0,0,0-11.169-21.32,15.594,15.594,0,0,0-30.744,0,26.025,26.025,0,0,0-11.169,21.32v2.36a6.549,6.549,0,0,0-5.97,6.46L927,5813.91a6.419,6.419,0,0,0,1.929,4.61,6.611,6.611,0,0,0,4.671,1.91h0.739a34.24,34.24,0,0,0,24.792,23.52,1.534,1.534,0,0,0,.369.04,1.515,1.515,0,0,0,.368-0.04l0.026-.01a34.471,34.471,0,0,0,8.006-3.05,1.485,1.485,0,0,0,.621-2.03,1.531,1.531,0,0,0-2.066-.61,32.249,32.249,0,0,1-6.954,2.69,31.048,31.048,0,0,1-23.473-30v-1.92l0.658-.15a76.684,76.684,0,0,0,24.528-10.23,27.366,27.366,0,0,0,21.619,10.51h0.175v1.78a30.779,30.779,0,0,1-3.733,14.66,1.486,1.486,0,0,0,.623,2.03,1.551,1.551,0,0,0,.72.18,1.536,1.536,0,0,0,1.345-.79,33.547,33.547,0,0,0,2.719-6.58H985.4a6.611,6.611,0,0,0,4.671-1.91,6.419,6.419,0,0,0,1.929-4.61Zm-58.39,7.32h0a3.523,3.523,0,0,1-2.512-1.03,3.439,3.439,0,0,1-1.037-2.47l0.007-3.81a3.516,3.516,0,0,1,2.919-3.44v4.27a33.739,33.739,0,0,0,.626,6.48h0Zm25.918-47.43a12.485,12.485,0,0,1,11.621,7.76,26.9,26.9,0,0,0-23.242,0A12.485,12.485,0,0,1,959.519,5769.99Zm23.49,35.5v0.65h-0.175a24.321,24.321,0,0,1-19.091-9.19c1.056-.74,2.093-1.5,3.107-2.29a1.488,1.488,0,0,0,.251-2.11,1.529,1.529,0,0,0-2.143-.25,73.243,73.243,0,0,1-28.929,13.63v-4.65a23.492,23.492,0,0,1,46.98,0v4.21h0Zm4.9,10.9a3.517,3.517,0,0,1-2.489,1.03,33.524,33.524,0,0,0,.639-6.49v-4.25a3.521,3.521,0,0,1,2.88,3.43l0.007,3.81A3.435,3.435,0,0,1,987.91,5816.39Zm-16.755-27.36a1.544,1.544,0,0,0-2.154-.12l-0.021.02a1.484,1.484,0,0,0-.121,2.12,1.537,1.537,0,0,0,1.138.5,1.509,1.509,0,0,0,1.015-.38l0.021-.02A1.484,1.484,0,0,0,971.155,5789.03Zm15.72,48.52-8.427-8.3-3.241-8.36a2.927,2.927,0,0,0-3.241-1.8,14.13,14.13,0,0,0-11.37,11.21l-0.006.04a2.867,2.867,0,0,0,1.749,3.16l8.316,3.4,6.746,6.65a1.516,1.516,0,1,0,2.157-2.13l-5.882-5.79,3.463-3.42,7.579,7.47a1.536,1.536,0,0,0,2.157,0A1.494,1.494,0,0,0,986.875,5837.55Zm-15.714-3.7-7.55-3.08a11.075,11.075,0,0,1,8.789-8.7l2.961,7.64Zm19.639,7.57a1.544,1.544,0,0,0-2.159,0,1.5,1.5,0,0,0,0,2.13,1.544,1.544,0,0,0,2.159,0A1.495,1.495,0,0,0,990.8,5841.42Z" transform="translate(-927 -5767)"/>
</svg>
