<svg xmlns="http://www.w3.org/2000/svg" width="83" height="75" viewBox="0 0 83 75">
  <metadata><?xpacket begin="﻿" id="W5M0MpCehiHzreSzNTczkc9d"?>
<x:xmpmeta xmlns:x="adobe:ns:meta/" x:xmptk="Adobe XMP Core 5.6-c138 79.159824, 2016/09/14-01:09:01        ">
   <rdf:RDF xmlns:rdf="http://www.w3.org/1999/02/22-rdf-syntax-ns#">
      <rdf:Description rdf:about=""/>
   </rdf:RDF>
</x:xmpmeta>
                                                                                                    
                                                                                                    
                                                                                                    
                                                                                                    
                                                                                                    
                                                                                                    
                                                                                                    
                                                                                                    
                                                                                                    
                                                                                                    
                                                                                                    
                                                                                                    
                                                                                                    
                                                                                                    
                                                                                                    
                                                                                                    
                                                                                                    
                                                                                                    
                                                                                                    
                                                                                                    
                           
<?xpacket end="w"?></metadata>
<defs>
    <style>
      .cls-1 {
        fill: #1e2528;
        fill-rule: evenodd;
      }
    </style>
  </defs>
  <path class="cls-1" d="M580.113,5771.43a8.054,8.054,0,0,0-10.613-.79,8.056,8.056,0,0,0-10.615.79,8.335,8.335,0,0,0,0,11.66l9.726,9.87a1.254,1.254,0,0,0,1.779,0l9.722-9.87A8.336,8.336,0,0,0,580.113,5771.43Zm-1.779,9.86-8.833,8.96-8.837-8.96a5.765,5.765,0,0,1,0-8.06,5.562,5.562,0,0,1,7.947,0,1.243,1.243,0,0,0,.89.37h0a1.243,1.243,0,0,0,.89-0.37,5.557,5.557,0,0,1,7.943,0A5.765,5.765,0,0,1,578.334,5781.29Zm7.933,12.55a24.348,24.348,0,0,0-16.779,6.66,24.445,24.445,0,0,0-16.758-6.66,25.088,25.088,0,0,0,0,50.17,24.336,24.336,0,0,0,16.778-6.65,24.439,24.439,0,0,0,16.759,6.65A25.088,25.088,0,0,0,586.267,5793.84Zm-33.537,47.62a22.537,22.537,0,1,1,22.218-22.53,22.673,22.673,0,0,1-2.93,11.19,17.59,17.59,0,0,1-1.073-1.56,20.859,20.859,0,0,0,1.625-4.22,21.144,21.144,0,0,0,.7-5.41,20.924,20.924,0,0,0-1.615-8.11,20.611,20.611,0,0,0-3.916-6.11l-0.021-.03c-0.152-.16-0.306-0.32-0.464-0.48a20.331,20.331,0,0,0-14.525-6.11,20.606,20.606,0,0,0-5.017.63,19.9,19.9,0,0,0-4.568,1.78,20.437,20.437,0,0,0-3.967,2.77,20.969,20.969,0,0,0-3.215,3.62,1.292,1.292,0,0,0,.3,1.78,1.253,1.253,0,0,0,1.754-.31,18.4,18.4,0,0,1,6.3-5.61,17.579,17.579,0,0,1,8.411-2.1,17.757,17.757,0,0,1,12.489,5.1,25.365,25.365,0,0,0,.008,26.35,18.066,18.066,0,0,1-5.193,3.55,17.852,17.852,0,0,1-18.374-2.29,18.359,18.359,0,0,1-6.956-14.43,18.5,18.5,0,0,1,1.122-6.37,1.274,1.274,0,0,0-.743-1.63,1.1,1.1,0,0,0-.438-0.08,1.262,1.262,0,0,0-1.179.83,20.958,20.958,0,0,0,6.649,23.69,20.246,20.246,0,0,0,12.615,4.39l0-.01v0.01a20.166,20.166,0,0,0,11.918-3.87,20.41,20.41,0,0,0,2.026-1.67c0.342,0.45.7,0.89,1.07,1.31A21.821,21.821,0,0,1,552.73,5841.46Zm18.026-22.53a18.3,18.3,0,0,1-1.259,6.72,18.636,18.636,0,0,1-.642-11.47,17.778,17.778,0,0,1,.644-1.97A18.328,18.328,0,0,1,570.756,5818.93Zm15.511,22.53a22.4,22.4,0,0,1-22.218-22.53,22.7,22.7,0,0,1,2.93-11.2q0.576,0.765,1.071,1.56a21.168,21.168,0,0,0-.71,17.75,20.922,20.922,0,0,0,3.924,6.12s0.007,0,.01.01c0.154,0.16.309,0.33,0.468,0.49a20.5,20.5,0,0,0,6.53,4.46,20.3,20.3,0,0,0,13.013,1.01,20.218,20.218,0,0,0,8.534-4.55,20.857,20.857,0,0,0,3.214-3.61,1.289,1.289,0,0,0-.3-1.78,1.206,1.206,0,0,0-.728-0.24,1.248,1.248,0,0,0-1.026.54,18.2,18.2,0,0,1-6.3,5.61,17.561,17.561,0,0,1-4.006,1.56,18.078,18.078,0,0,1-4.4.55,17.585,17.585,0,0,1-7.018-1.44,17.908,17.908,0,0,1-5.471-3.67,25.368,25.368,0,0,0-.009-26.35,17.81,17.81,0,0,1,5.193-3.54,17.923,17.923,0,0,1,13.683-.39,0.028,0.028,0,0,0,.024.01h0a17.911,17.911,0,0,1,4.682,2.68,18.489,18.489,0,0,1,5.817,20.78,1.268,1.268,0,0,0,.037.97,1.233,1.233,0,0,0,.7.67,1.319,1.319,0,0,0,.438.08,1.261,1.261,0,0,0,1.18-.83,21.125,21.125,0,0,0-2.45-19.22,20.537,20.537,0,0,0-4.2-4.47,20.335,20.335,0,0,0-12.616-4.4h0a20.037,20.037,0,0,0-8.322,1.79,19.686,19.686,0,0,0-3.6,2.08,20.41,20.41,0,0,0-2.026,1.67c-0.342-.45-0.7-0.89-1.071-1.31a21.869,21.869,0,0,1,15.018-5.93A22.537,22.537,0,0,1,586.267,5841.46Z" transform="translate(-528 -5769)"/>
</svg>
