<svg xmlns="http://www.w3.org/2000/svg" width="44" height="47" viewBox="0 0 44 47">
  <metadata><?xpacket begin="﻿" id="W5M0MpCehiHzreSzNTczkc9d"?>
<x:xmpmeta xmlns:x="adobe:ns:meta/" x:xmptk="Adobe XMP Core 5.6-c138 79.159824, 2016/09/14-01:09:01        ">
   <rdf:RDF xmlns:rdf="http://www.w3.org/1999/02/22-rdf-syntax-ns#">
      <rdf:Description rdf:about=""/>
   </rdf:RDF>
</x:xmpmeta>
                                                                                                    
                                                                                                    
                                                                                                    
                                                                                                    
                                                                                                    
                                                                                                    
                                                                                                    
                                                                                                    
                                                                                                    
                                                                                                    
                                                                                                    
                                                                                                    
                                                                                                    
                                                                                                    
                                                                                                    
                                                                                                    
                                                                                                    
                                                                                                    
                                                                                                    
                                                                                                    
                           
<?xpacket end="w"?></metadata>
<defs>
    <style>
      .cls-1 {
        fill: #1e2528;
        fill-rule: evenodd;
      }
    </style>
  </defs>
  <path id="https:_www.flaticon.com_free-icon_stopwatch_149322_term_time_page_1_position_7" data-name="https://www.flaticon.com/free-icon/stopwatch_149322#term=time&amp;page=1&amp;position=7" class="cls-1" d="M511.272,1314.76a2.8,2.8,0,0,0,2.033-1.14l7.3-10.14a0.8,0.8,0,0,0-.081-1.02,0.787,0.787,0,0,0-1.009-.08l-10.1,7.34a2.794,2.794,0,0,0,1.633,5.05C511.126,1314.77,511.2,1314.76,511.272,1314.76Zm-1.433-2.88a1.214,1.214,0,0,1,.5-0.89l6.161-4.48-4.455,6.18a1.206,1.206,0,0,1-.893.51A1.228,1.228,0,0,1,509.839,1311.88Zm18.908-11.55c-0.008-.02-0.008-0.04-0.017-0.06s-0.024-.02-0.034-0.03a21.094,21.094,0,0,0-2.781-3.77l1.675-1.68,1.1,1.1,3.309-3.32-3.309-3.32-3.311,3.32,1.1,1.11-1.675,1.68a21.263,21.263,0,0,0-3.752-2.79c-0.015-.01-0.023-0.03-0.039-0.04a0.09,0.09,0,0,0-.05-0.01,20.782,20.782,0,0,0-8.014-2.67v-0.93h1.17a1.96,1.96,0,0,0,0-3.92h-7.021a1.96,1.96,0,0,0,0,3.92h1.17v0.9a21.63,21.63,0,0,0-2.515.42,0.785,0.785,0,0,0,.349,1.53,20.13,20.13,0,0,1,2.169-.38l0.837-.06c0.255-.02.491-0.03,0.72-0.05v1.55a0.781,0.781,0,1,0,1.561,0v-1.54a19.384,19.384,0,0,1,8.157,2.23l-0.769,1.34a0.78,0.78,0,1,0,1.351.78l0.767-1.33a19.632,19.632,0,0,1,6.063,6.08l-1.329.77a0.784,0.784,0,1,0,.782,1.36l1.332-.77a19.481,19.481,0,0,1,2.222,8.32h-1.54a0.78,0.78,0,1,0,0,1.56h1.54a19.481,19.481,0,0,1-2.222,8.32l-1.332-.77a0.772,0.772,0,0,0-1.066.29,0.788,0.788,0,0,0,.286,1.07l1.328,0.77a19.622,19.622,0,0,1-6.063,6.08l-0.767-1.33a0.78,0.78,0,1,0-1.351.78l0.769,1.34a19.384,19.384,0,0,1-8.157,2.23v-1.54a0.78,0.78,0,1,0-1.56,0v1.54a19.641,19.641,0,0,1-3.726-.48,0.778,0.778,0,0,0-.934.59,0.787,0.787,0,0,0,.585.94,21.021,21.021,0,0,0,4.726.54h0.146a20.97,20.97,0,0,0,10.312-2.8l0.073-.03c0.016-.01.025-0.03,0.039-0.04a21.232,21.232,0,0,0,7.625-7.64,0.313,0.313,0,0,1,.047-0.06c0.009-.02.008-0.04,0.016-0.06A21.127,21.127,0,0,0,528.747,1300.33Zm-0.054-8.87,1.1,1.11-1.1,1.11-1.1-1.11Zm-18.858-1.74v-2.37h-2.73a0.394,0.394,0,0,1-.39-0.39,0.387,0.387,0,0,1,.39-0.39h7.021a0.387,0.387,0,0,1,.39.39,0.394,0.394,0,0,1-.39.39H511.4v2.37c-0.272-.01-0.531-0.02-0.78-0.02h-0.128c-0.128,0-.255.01-0.383,0.01A2.464,2.464,0,0,0,509.835,1289.72Zm-6.241,6.25h-3.9a0.78,0.78,0,0,0,0,1.56h3.9A0.78,0.78,0,1,0,503.594,1295.97Zm0,5.48h-7.8a0.785,0.785,0,0,0,0,1.57h7.8A0.785,0.785,0,0,0,503.594,1301.45Zm0,5.48h-11.7a0.785,0.785,0,0,0,0,1.57h11.7A0.785,0.785,0,0,0,503.594,1306.93Zm0,5.49H488.772a0.78,0.78,0,0,0,0,1.56h14.822A0.78,0.78,0,1,0,503.594,1312.42Zm0,5.48H493.453a0.785,0.785,0,0,0,0,1.57h10.141A0.785,0.785,0,0,0,503.594,1317.9Zm0,5.48h-5.46a0.785,0.785,0,0,0,0,1.57h5.46A0.785,0.785,0,0,0,503.594,1323.38Z" transform="translate(-488 -1285)"/>
</svg>
