<svg xmlns="http://www.w3.org/2000/svg" width="51" height="49" viewBox="0 0 51 49">
  <metadata><?xpacket begin="﻿" id="W5M0MpCehiHzreSzNTczkc9d"?>
<x:xmpmeta xmlns:x="adobe:ns:meta/" x:xmptk="Adobe XMP Core 5.6-c138 79.159824, 2016/09/14-01:09:01        ">
   <rdf:RDF xmlns:rdf="http://www.w3.org/1999/02/22-rdf-syntax-ns#">
      <rdf:Description rdf:about=""/>
   </rdf:RDF>
</x:xmpmeta>
                                                                                                    
                                                                                                    
                                                                                                    
                                                                                                    
                                                                                                    
                                                                                                    
                                                                                                    
                                                                                                    
                                                                                                    
                                                                                                    
                                                                                                    
                                                                                                    
                                                                                                    
                                                                                                    
                                                                                                    
                                                                                                    
                                                                                                    
                                                                                                    
                                                                                                    
                                                                                                    
                           
<?xpacket end="w"?></metadata>
<defs>
    <style>
      .cls-1 {
        fill: #1e2528;
        fill-rule: evenodd;
      }
    </style>
  </defs>
  <path id="https:_www.flaticon.com_free-icon_real-estate_1767448_term_done_page_4_position_9" data-name="https://www.flaticon.com/free-icon/real-estate_1767448#term=done&amp;page=4&amp;position=9" class="cls-1" d="M805.5,1327.07a13.115,13.115,0,1,0-11.727-7.37A13.058,13.058,0,0,0,805.5,1327.07Zm-9.1-20.27a11.524,11.524,0,0,1,14.626-3.05,11.574,11.574,0,1,1-14.626,3.05h0Zm5.542,11.94a0.735,0.735,0,0,0,1.034.09l10.5-8.58a0.746,0.746,0,1,0-.938-1.16l-9.938,8.12-4.038-4.75a0.746,0.746,0,0,0-.7-0.25,0.748,0.748,0,0,0-.428,1.22Zm-21.2-17.14h6.51v28.65a0.74,0.74,0,0,0,.742.74h35.017a0.741,0.741,0,0,0,.743-0.74V1301.6h6.51a0.736,0.736,0,0,0,.706-0.51,0.756,0.756,0,0,0-.269-0.84l-5.092-3.72v-8.69a0.741,0.741,0,0,0-.743-0.74h-5.229a0.74,0.74,0,0,0-.742.74v3.78l-12.955-9.48a0.741,0.741,0,0,0-.874,0L780.3,1300.25a0.756,0.756,0,0,0-.269.84A0.735,0.735,0,0,0,780.737,1301.6Zm39.638-13.01h3.743v6.85l-3.742-2.74v-4.11Zm-14.877-4.92,22.478,16.44h-4.97a0.749,0.749,0,0,0-.743.75v28.64H788.732v-28.64a0.749,0.749,0,0,0-.743-0.75h-4.97Z" transform="translate(-780 -1282)"/>
</svg>
