<svg xmlns="http://www.w3.org/2000/svg" width="49" height="49" viewBox="0 0 49 49">
  <metadata><?xpacket begin="﻿" id="W5M0MpCehiHzreSzNTczkc9d"?>
<x:xmpmeta xmlns:x="adobe:ns:meta/" x:xmptk="Adobe XMP Core 5.6-c138 79.159824, 2016/09/14-01:09:01        ">
   <rdf:RDF xmlns:rdf="http://www.w3.org/1999/02/22-rdf-syntax-ns#">
      <rdf:Description rdf:about=""/>
   </rdf:RDF>
</x:xmpmeta>
                                                                                                    
                                                                                                    
                                                                                                    
                                                                                                    
                                                                                                    
                                                                                                    
                                                                                                    
                                                                                                    
                                                                                                    
                                                                                                    
                                                                                                    
                                                                                                    
                                                                                                    
                                                                                                    
                                                                                                    
                                                                                                    
                                                                                                    
                                                                                                    
                                                                                                    
                                                                                                    
                           
<?xpacket end="w"?></metadata>
<defs>
    <style>
      .cls-1 {
        fill: #1e2528;
        fill-rule: evenodd;
      }
    </style>
  </defs>
  <path id="https:_www.flaticon.com_free-icon_address_1076731_term_map_page_1_position_70" data-name="https://www.flaticon.com/free-icon/address_1076731#term=map&amp;page=1&amp;position=70" class="cls-1" d="M1103.24,1305.88a0.96,0.96,0,1,0,.96.96A0.96,0.96,0,0,0,1103.24,1305.88Zm-20.46,10.51-9.58,12.06a0.957,0.957,0,0,0,.75,1.55h47.09a0.957,0.957,0,0,0,.75-1.55l-9.57-12.06a0.953,0.953,0,0,0-.75-0.36h-8.38l7.16-11.23a15.32,15.32,0,1,0-25.5,0l7.16,11.23h-8.39A0.933,0.933,0,0,0,1082.78,1316.39Zm-3.58,7.58h5.79l-3.27,4.12h-5.78Zm13.93-6.03,2.62,4.12h-6.8l3.27-4.12h0.91Zm8.74,0h0.91l3.26,4.12h-6.8Zm5.69,6.03,3.27,4.12h-26.66l3.26-4.12h20.13Zm5.71,4.12-3.26-4.12h5.78l3.27,4.12h-5.79Zm1.01-6.03h-5.79l-3.27-4.12h5.79Zm-27.93-18.31a13.4,13.4,0,1,1,22.3,0,0.01,0.01,0,0,0-.01.01c-0.63.99-10.66,16.71-11.14,17.47-1.22-1.91-9.9-15.52-11.14-17.47Zm3.42,14.19-3.26,4.12h-5.79l3.27-4.12h5.78Zm7.73-12.06a9.57,9.57,0,1,0-9.57-9.57A9.57,9.57,0,0,0,1097.5,1305.88Zm0-17.22a7.655,7.655,0,1,1-7.66,7.65A7.656,7.656,0,0,1,1097.5,1288.66Zm4.03,20.49a0.956,0.956,0,0,0-1.31.32l-3.54,5.87a0.958,0.958,0,1,0,1.64.99l3.54-5.87A0.959,0.959,0,0,0,1101.53,1309.15Z" transform="translate(-1073 -1281)"/>
</svg>
